<svg width="67" height="67" viewBox="0 0 67 67" fill="none" xmlns="http://www.w3.org/2000/svg">
<path d="M0.599375 19.9468C0.920511 10.5005 8.14537 2.73103 17.5435 1.72547L25.5532 0.868476C30.949 0.291158 36.3911 0.294203 41.7862 0.87756L49.477 1.70914C58.866 2.72434 66.0791 10.4899 66.4 19.9282L66.8621 33.5202L66.4058 46.9413C66.0824 56.4534 58.7619 64.254 49.2895 65.1802L40.8858 66.002C35.9736 66.4823 31.0264 66.4823 26.1142 66.002L17.7105 65.1802C8.23808 64.254 0.917569 56.4534 0.594198 46.9413L0.137939 33.5202L0.599375 19.9468Z" fill="url(#paint0_linear_11_99)"/>
<path d="M23.9619 47L24.4099 21.08H30.5539L33.4019 36.152L36.4739 21.08H42.3939L42.8419 47H38.7779L38.2979 29.752L35.2899 47H31.6739L28.4739 29.624L28.0899 47H23.9619Z" fill="white"/>
<defs>
<linearGradient id="paint0_linear_11_99" x1="33.5" y1="0" x2="33.5" y2="66.7241" gradientUnits="userSpaceOnUse">
<stop stop-color="#FF5F1F"/>
<stop offset="0.810417" stop-color="#AB3600"/>
<stop offset="1" stop-color="#832700"/>
</linearGradient>
</defs>
</svg>
